<svg xmlns="http://www.w3.org/2000/svg" viewBox="0 0 512 512">
  <rect width="512" height="512" fill="#f8f8f8" rx="80"/>
  <path d="M 60 256 Q 60 160 130 160 Q 200 160 240 256 Q 280 352 350 352 Q 420 352 452 256 Q 452 160 382 160 Q 312 160 272 256 Q 232 352 162 352 Q 92 352 60 256" fill="none" stroke="#2c3e50" stroke-width="3" stroke-linecap="round" opacity="0.3"/>
  <path d="M 70 256 Q 70 180 130 180 Q 190 180 230 256 Q 270 332 330 332 Q 390 332 442 256 Q 442 180 382 180 Q 322 180 282 256 Q 242 332 182 332 Q 122 332 70 256" fill="none" stroke="#2c3e50" stroke-width="16" stroke-linecap="round"/>
</svg>