<svg xmlns="http://www.w3.org/2000/svg" viewBox="0 0 512 512">
  <rect width="512" height="512" fill="#f0f0f0" rx="80"/>
  <g opacity="0.15">
    <path d="M 60 246 Q 60 160 130 160 Q 200 160 240 246 Q 280 332 350 332 Q 420 332 452 246" fill="none" stroke="#2c3e50" stroke-width="20"/>
  </g>
  <g opacity="0.25">
    <path d="M 65 251 Q 65 165 130 165 Q 195 165 235 251 Q 275 337 335 337 Q 395 337 447 251" fill="none" stroke="#2c3e50" stroke-width="16"/>
  </g>
  <path d="M 70 256 Q 70 170 130 170 Q 190 170 230 256 Q 270 342 330 342 Q 390 342 442 256" fill="none" stroke="#2c3e50" stroke-width="12" stroke-linecap="round"/>
  <path d="M 442 256 Q 442 342 382 342 Q 322 342 282 256 Q 242 170 182 170 Q 122 170 70 256" fill="none" stroke="#3498db" stroke-width="12" stroke-linecap="round"/>
</svg>